<svg width="33" height="33" viewBox="0 0 33 33" fill="none" xmlns="http://www.w3.org/2000/svg">
<path d="M28.4965 10.0656C28.4512 9.60958 28.1752 9.20958 27.7658 9.00558L17.0992 3.67225C16.7245 3.48425 16.2818 3.48425 15.9058 3.67225L5.23918 9.00558C4.83118 9.21092 4.55518 9.61092 4.50985 10.0656C4.49518 10.2083 3.22851 24.4216 15.9618 30.0842C16.1338 30.1616 16.3178 30.1989 16.5032 30.1989C16.6885 30.1989 16.8725 30.1616 17.0445 30.0842C29.7778 24.4216 28.5112 10.2096 28.4965 10.0656ZM16.5032 27.3949C7.47785 23.0322 7.05118 13.7216 7.12451 11.0456L16.5032 6.35625L25.8752 11.0429C25.9245 13.6949 25.4378 23.0669 16.5032 27.3949Z" fill="white"/>
<path d="M15.1692 17.6459L12.1119 14.5885L10.2266 16.4739L15.1692 21.4165L22.7786 13.8072L20.8932 11.9219L15.1692 17.6459Z" fill="white"/>
</svg>
