<svg width="18" height="18" viewBox="0 0 18 18" fill="none" xmlns="http://www.w3.org/2000/svg">
<path d="M6 4.3125C5.6925 4.3125 5.4375 4.0575 5.4375 3.75V1.5C5.4375 1.1925 5.6925 0.9375 6 0.9375C6.3075 0.9375 6.5625 1.1925 6.5625 1.5V3.75C6.5625 4.0575 6.3075 4.3125 6 4.3125Z" fill="white"/>
<path d="M12 4.3125C11.6925 4.3125 11.4375 4.0575 11.4375 3.75V1.5C11.4375 1.1925 11.6925 0.9375 12 0.9375C12.3075 0.9375 12.5625 1.1925 12.5625 1.5V3.75C12.5625 4.0575 12.3075 4.3125 12 4.3125Z" fill="white"/>
<path d="M6.375 10.8734C6.18 10.8734 5.985 10.7909 5.8425 10.6559C5.7075 10.5134 5.625 10.3259 5.625 10.1234C5.625 10.0259 5.6475 9.92843 5.685 9.83843C5.7225 9.74843 5.775 9.66594 5.8425 9.59094C6.12 9.31344 6.6225 9.31344 6.9075 9.59094C7.0425 9.73344 7.125 9.92843 7.125 10.1234C7.125 10.1684 7.1175 10.2209 7.11 10.2734C7.1025 10.3184 7.0875 10.3634 7.065 10.4084C7.05 10.4534 7.0275 10.4984 6.9975 10.5434C6.9675 10.5809 6.9375 10.6184 6.9075 10.6559C6.765 10.7909 6.57 10.8734 6.375 10.8734Z" fill="white"/>
<path d="M9 10.8787C8.9025 10.8787 8.805 10.8562 8.715 10.8187C8.6175 10.7812 8.5425 10.7286 8.4675 10.6611C8.3325 10.5186 8.25 10.3312 8.25 10.1287C8.25 10.0312 8.2725 9.93365 8.31 9.84365C8.3475 9.75365 8.4 9.67116 8.4675 9.59616C8.5425 9.52866 8.6175 9.47614 8.715 9.43864C8.9925 9.32614 9.3225 9.38616 9.5325 9.59616C9.6675 9.73866 9.75 9.93365 9.75 10.1287C9.75 10.1737 9.7425 10.2262 9.735 10.2787C9.7275 10.3237 9.7125 10.3687 9.69 10.4137C9.675 10.4587 9.6525 10.5036 9.6225 10.5486C9.6 10.5861 9.5625 10.6236 9.5325 10.6611C9.39 10.7961 9.195 10.8787 9 10.8787Z" fill="white"/>
<path d="M6.375 13.4991C6.2775 13.4991 6.18 13.4766 6.09 13.4391C5.9925 13.4016 5.91 13.3491 5.8425 13.2816C5.775 13.2141 5.7225 13.1316 5.685 13.0341C5.6475 12.9441 5.625 12.8466 5.625 12.7491C5.625 12.6516 5.6475 12.5541 5.685 12.4641C5.7225 12.3666 5.775 12.2841 5.8425 12.2166C5.91 12.1491 5.9925 12.0966 6.09 12.0591C6.27 11.9841 6.48 11.9766 6.66 12.0591C6.7575 12.0966 6.84 12.1491 6.9075 12.2166C6.975 12.2841 7.0275 12.3666 7.065 12.4641C7.1025 12.5541 7.125 12.6516 7.125 12.7491C7.125 12.8466 7.1025 12.9441 7.065 13.0341C7.0275 13.1316 6.975 13.2141 6.9075 13.2816C6.84 13.3491 6.7575 13.4016 6.66 13.4391C6.57 13.4766 6.4725 13.4991 6.375 13.4991Z" fill="white"/>
<path d="M15.375 7.38281H2.625C2.3175 7.38281 2.0625 7.12781 2.0625 6.82031C2.0625 6.51281 2.3175 6.25781 2.625 6.25781H15.375C15.6825 6.25781 15.9375 6.51281 15.9375 6.82031C15.9375 7.12781 15.6825 7.38281 15.375 7.38281Z" fill="white"/>
<path d="M13.5 17.8125C12.6225 17.8125 11.79 17.4975 11.1525 16.92C10.8825 16.695 10.6425 16.41 10.4475 16.08C10.1175 15.54 9.9375 14.9025 9.9375 14.25C9.9375 12.285 11.535 10.6875 13.5 10.6875C14.52 10.6875 15.495 11.13 16.17 11.895C16.7475 12.555 17.0625 13.3875 17.0625 14.25C17.0625 14.9025 16.8825 15.54 16.545 16.0875C15.915 17.1525 14.745 17.8125 13.5 17.8125ZM13.5 11.8125C12.1575 11.8125 11.0625 12.9075 11.0625 14.25C11.0625 14.6925 11.1825 15.1275 11.415 15.5025C11.5425 15.7275 11.7075 15.915 11.8875 16.0725C12.3375 16.4775 12.9 16.6875 13.5 16.6875C14.3625 16.6875 15.1425 16.245 15.585 15.51C15.8175 15.1275 15.9375 14.7 15.9375 14.25C15.9375 13.665 15.72 13.095 15.33 12.6375C14.865 12.1125 14.1975 11.8125 13.5 11.8125Z" fill="white"/>
<path d="M13.0687 15.5542C12.9262 15.5542 12.7837 15.5017 12.6712 15.3892L11.9287 14.6467C11.7113 14.4292 11.7113 14.0692 11.9287 13.8517C12.1462 13.6342 12.5062 13.6342 12.7237 13.8517L13.0837 14.2117L14.2837 13.1017C14.5087 12.8917 14.8687 12.9067 15.0787 13.1317C15.2887 13.3567 15.2737 13.7167 15.0487 13.9267L13.4512 15.4042C13.3387 15.5017 13.2037 15.5542 13.0687 15.5542Z" fill="white"/>
<path d="M11.5275 17.0625H6C3.2625 17.0625 1.6875 15.4875 1.6875 12.75V6.375C1.6875 3.6375 3.2625 2.0625 6 2.0625H12C14.7375 2.0625 16.3125 3.6375 16.3125 6.375V12.27C16.3125 12.5025 16.17 12.7125 15.945 12.795C15.7275 12.8775 15.48 12.8175 15.3225 12.6375C14.8575 12.1125 14.19 11.8125 13.4925 11.8125C12.15 11.8125 11.055 12.9075 11.055 14.25C11.055 14.6925 11.175 15.1275 11.4075 15.5025C11.535 15.7275 11.7 15.915 11.88 16.0725C12.06 16.2225 12.1275 16.47 12.045 16.695C11.9775 16.9125 11.7675 17.0625 11.5275 17.0625ZM6 3.1875C3.855 3.1875 2.8125 4.23 2.8125 6.375V12.75C2.8125 14.895 3.855 15.9375 6 15.9375H10.365C10.0875 15.4275 9.9375 14.85 9.9375 14.25C9.9375 12.285 11.535 10.6875 13.5 10.6875C14.0925 10.6875 14.6775 10.8375 15.1875 11.115V6.375C15.1875 4.23 14.145 3.1875 12 3.1875H6Z" fill="white"/>
</svg>
