<svg width="32" height="33" viewBox="0 0 32 33" fill="none" xmlns="http://www.w3.org/2000/svg">
<path d="M27.0443 13.5534V20.1784C27.0443 22.9388 26.4922 24.8711 25.2555 26.1189L18.2109 19.0743L26.7462 10.5391C26.9449 11.4114 27.0443 12.4051 27.0443 13.5534Z" stroke="#0A61B4" stroke-width="2" stroke-linecap="round" stroke-linejoin="round"/>
<path d="M26.7462 10.5429L9.67572 27.6133C6.35218 26.8515 4.96094 24.5548 4.96094 20.1823V13.5573C4.96094 8.03646 7.16927 5.82812 12.6901 5.82812H19.3151C23.6876 5.82812 25.9843 7.21938 26.7462 10.5429Z" stroke="#0A61B4" stroke-width="2" stroke-linecap="round" stroke-linejoin="round"/>
<path d="M25.2517 26.1227C24.004 27.3594 22.0717 27.9115 19.3113 27.9115H12.6863C11.5379 27.9115 10.5442 27.8121 9.67188 27.6133L18.2071 19.0781L25.2517 26.1227Z" stroke="#0A61B4" stroke-width="2" stroke-linecap="round" stroke-linejoin="round"/>
<path d="M9.64072 12.4264C10.3916 9.1912 15.2499 9.1912 16.0007 12.4264C16.4314 14.3256 15.2388 15.9377 14.1899 16.9314C13.428 17.6602 12.2245 17.6602 11.4516 16.9314C10.4026 15.9377 9.19905 14.3256 9.64072 12.4264Z" stroke="#0A61B4" stroke-width="2"/>
<path d="M12.7882 13.224H12.7981" stroke="#0A61B4" stroke-width="2" stroke-linecap="round" stroke-linejoin="round"/>
</svg>
