<svg width="23" height="25" viewBox="0 0 23 25" fill="none" xmlns="http://www.w3.org/2000/svg">
<path d="M12.7266 20.1018H19.1212" stroke="black" stroke-width="2" stroke-linecap="round" stroke-linejoin="round"/>
<path fill-rule="evenodd" clip-rule="evenodd" d="M8.24989 5.7504C8.24989 4.37825 7.17595 3.26562 5.85151 3.26562C4.52706 3.26562 3.45312 4.37825 3.45312 5.7504C3.45312 7.12255 4.52706 8.23517 5.85151 8.23517C7.17595 8.23517 8.24989 7.12255 8.24989 5.7504Z" stroke="black" stroke-width="2" stroke-linecap="round" stroke-linejoin="round"/>
<path d="M9.87905 12.6721H3.48438" stroke="black" stroke-width="2" stroke-linecap="round" stroke-linejoin="round"/>
<path fill-rule="evenodd" clip-rule="evenodd" d="M8.24989 20.0473C8.24989 18.6751 7.17595 17.5625 5.85151 17.5625C4.52706 17.5625 3.45312 18.6751 3.45312 20.0473C3.45312 21.4194 4.52706 22.532 5.85151 22.532C7.17595 22.532 8.24989 21.4194 8.24989 20.0473Z" stroke="black" stroke-width="2" stroke-linecap="round" stroke-linejoin="round"/>
<path fill-rule="evenodd" clip-rule="evenodd" d="M19.6952 12.6332C19.6952 11.2611 18.6221 10.1484 17.2976 10.1484C15.9724 10.1484 14.8984 11.2611 14.8984 12.6332C14.8984 14.0054 15.9724 15.118 17.2976 15.118C18.6221 15.118 19.6952 14.0054 19.6952 12.6332Z" stroke="black" stroke-width="2" stroke-linecap="round" stroke-linejoin="round"/>
<path d="M12.7266 5.80495H19.1212" stroke="black" stroke-width="2" stroke-linecap="round" stroke-linejoin="round"/>
</svg>
